<svg width="11" height="11" viewBox="0 0 11 11" fill="none" xmlns="http://www.w3.org/2000/svg">
<g clip-path="url(#clip0_403_9374)">
<path d="M6.10262 2.62565L4.72168 1.50488L6.107 3.84247L6.10262 2.62565Z" fill="#040A44"/>
<path d="M6.94337 1.50488V5.23313H6.15045L4.7737 2.97788L4.81068 5.23313H3.93713V2.78575L3.12477 2.11482C3.1465 2.14227 3.16823 2.16972 3.18786 2.19945C3.40572 2.51738 3.51456 2.89707 3.51456 3.35452C3.51456 4.4791 2.84744 5.23237 1.83951 5.23237H0.473633V5.24152L4.82154 8.82415H10.2327V4.20615L6.94337 1.50488Z" fill="#040A44"/>
<path d="M6.94337 1.50586V5.23411H6.15045L4.7737 2.97886L4.81068 5.23411H3.93713V2.78673L3.12477 2.1158C3.1465 2.14325 3.16823 2.17069 3.18786 2.20043C3.40572 2.51836 3.51456 2.89804 3.51456 3.3555C3.51456 4.48007 2.84744 5.23335 1.83951 5.23335H0.473633V5.2425L4.82154 8.82512H10.2327V4.20713L6.94337 1.50586Z" fill="#040A44"/>
<path d="M6.94337 1.50586V5.23411H6.15045L4.7737 2.97886L4.81068 5.23411H3.93713V2.78673L3.12477 2.1158C3.1465 2.14325 3.16823 2.17069 3.18786 2.20043C3.40572 2.51836 3.51456 2.89804 3.51456 3.3555C3.51456 4.48007 2.84744 5.23335 1.83951 5.23335H0.473633V5.2425L4.82154 8.82512H10.2327V4.20713L6.94337 1.50586Z" fill="#040A44"/>
<path d="M2.6064 3.38263C2.6064 2.71932 2.29705 2.35107 1.74143 2.35107H1.32324V4.38674H1.73724C2.30353 4.38674 2.6064 4.03451 2.6064 3.38263Z" fill="#040A44"/>
</g>
<defs>
<clipPath id="clip0_403_9374">
<rect width="9.75902" height="9.75902" fill="white" transform="translate(0.473633 0.285156)"/>
</clipPath>
</defs>
</svg>
